<svg width="50" height="50" viewBox="0 0 50 50" fill="none" xmlns="http://www.w3.org/2000/svg">
<path d="M25 0C11.2152 0 0 11.2152 0 25C0 38.7848 11.2152 50 25 50C38.7848 50 50 38.7848 50 25C50 11.2152 38.7848 0 25 0ZM25 47.8261C12.413 47.8261 2.17391 37.587 2.17391 25C2.17391 12.413 12.413 2.17391 25 2.17391C37.587 2.17391 47.8261 12.413 47.8261 25C47.8261 37.587 37.587 47.8261 25 47.8261Z" fill="#50E538"/>
<path d="M25.8848 9.15C25.4761 8.57826 24.5239 8.57826 24.1152 9.15L13.2457 24.3685C13.0098 24.7 12.9772 25.1359 13.1641 25.4978C13.3511 25.8598 13.7239 26.087 14.1304 26.087H19.5652V39.1293C19.5641 39.7109 19.7902 40.2576 20.2 40.6685C20.6109 41.0793 21.1565 41.3054 21.7381 41.3054C21.7424 41.3054 21.7467 41.3054 21.7522 41.3054C21.9891 41.3043 28.2565 41.3033 28.2576 41.3043C28.2587 41.3043 28.2598 41.3043 28.262 41.3043C28.8413 41.3043 29.387 41.0783 29.7967 40.6696C30.2076 40.2587 30.4337 39.713 30.4348 39.1315V26.088H35.8696C36.2772 26.088 36.65 25.8609 36.8359 25.4989C37.0217 25.137 36.9902 24.7011 36.7544 24.3696L25.8848 9.15ZM29.3478 23.913C28.7478 23.913 28.2609 24.4 28.2609 25L28.2598 39.1304H22.7565C22.3739 39.1304 22.0315 39.1304 21.7381 39.1598V39.1326C21.7381 39.1315 21.7381 39.1315 21.7381 39.1304V25C21.7381 24.4 21.2511 23.913 20.6511 23.913H16.2413L24.9989 11.6522L33.7565 23.913H29.3478Z" fill="#50E538"/>
</svg>
