<svg width="18" height="19" viewBox="0 0 18 19" fill="none" xmlns="http://www.w3.org/2000/svg">
<g clip-path="url(#clip0)">
<path d="M9 18.1C4.03734 18.1 0 14.0626 0 9.09998C0 4.13731 4.03734 0.0999756 9 0.0999756C13.9627 0.0999756 18 4.13731 18 9.09998C18 14.0626 13.9627 18.1 9 18.1ZM9 1.38565C4.74637 1.38565 1.28568 4.84634 1.28568 9.09998C1.28568 13.3536 4.74637 16.8143 9 16.8143C13.2536 16.8143 16.7143 13.3536 16.7143 9.09998C16.7143 4.84634 13.2536 1.38565 9 1.38565Z" fill="white"/>
<path d="M12.2143 12.9572C12.0498 12.9572 11.8852 12.8944 11.7597 12.7687L5.3312 6.34023C5.08003 6.08906 5.08003 5.68229 5.3312 5.43125C5.58224 5.18021 5.98915 5.18007 6.24019 5.43125L12.6687 11.8598C12.9199 12.1109 12.9199 12.5177 12.6687 12.7687C12.5432 12.8944 12.3788 12.9572 12.2143 12.9572Z" fill="white"/>
<path d="M5.78563 12.9571C5.62111 12.9571 5.45672 12.8943 5.3312 12.7687C5.08003 12.5176 5.08003 12.1107 5.3312 11.8597L11.7597 5.43118C12.0109 5.18 12.4177 5.18 12.6687 5.43118C12.9197 5.68222 12.9199 6.08912 12.6687 6.34016L6.24018 12.7687C6.11467 12.8943 5.95015 12.9571 5.78563 12.9571Z" fill="white"/>
</g>
<defs>
<clipPath id="clip0">
<rect width="18" height="18" fill="white" transform="translate(0 0.0999756)"/>
</clipPath>
</defs>
</svg>
