<svg width="50" height="50" viewBox="0 0 50 50" fill="none" xmlns="http://www.w3.org/2000/svg">
<path d="M25 50C38.7848 50 50 38.7848 50 25C50 11.2152 38.7848 0 25 0C11.2152 0 0 11.2152 0 25C0 38.7848 11.2152 50 25 50ZM25 2.17391C37.587 2.17391 47.8261 12.413 47.8261 25C47.8261 37.587 37.587 47.8261 25 47.8261C12.413 47.8261 2.17391 37.587 2.17391 25C2.17391 12.413 12.413 2.17391 25 2.17391Z" fill="#FF4444"/>
<path d="M24.1152 40.85C24.5239 41.4217 25.4761 41.4217 25.8848 40.85L36.7543 25.6315C36.9902 25.3 37.0228 24.8641 36.8359 24.5022C36.6489 24.1402 36.2761 23.913 35.8696 23.913H30.4348L30.4348 10.8707C30.4359 10.2891 30.2098 9.7424 29.8 9.33153C29.3891 8.92066 28.8435 8.69457 28.2619 8.69457C28.2576 8.69457 28.2533 8.69457 28.2478 8.69457C28.0109 8.69566 21.7435 8.69674 21.7424 8.69566C21.7413 8.69566 21.7402 8.69566 21.738 8.69566C21.1587 8.69566 20.613 8.92175 20.2033 9.33044C19.7924 9.74131 19.5663 10.287 19.5652 10.8685V23.912H14.1304C13.7228 23.912 13.35 24.1391 13.1641 24.5011C12.9783 24.863 13.0098 25.2989 13.2456 25.6304L24.1152 40.85ZM20.6522 26.087C21.2522 26.087 21.7391 25.6 21.7391 25L21.7402 10.8696L27.2435 10.8696C27.6261 10.8696 27.9685 10.8696 28.2619 10.8402V10.8674C28.2619 10.8685 28.2619 10.8685 28.2619 10.8696L28.2619 25C28.2619 25.6 28.7489 26.087 29.3489 26.087H33.7587L25.0011 38.3478L16.2435 26.087H20.6522Z" fill="#FF4444"/>
</svg>
