<svg width="18" height="18" viewBox="0 0 18 18" fill="none" xmlns="http://www.w3.org/2000/svg">
<path d="M18 10.4883V7.5117L15.5595 7.03093C15.4265 6.58849 15.2489 6.1612 15.0292 5.75445L16.3906 3.71232L14.2876 1.60945L12.2456 2.97084C11.8388 2.75108 11.4115 2.57358 10.969 2.44058L10.4883 0H7.51173L7.03093 2.44055C6.58853 2.57354 6.1612 2.75105 5.75441 2.97081L3.71236 1.60945L1.60945 3.71236L2.97084 5.75448C2.75112 6.16124 2.57358 6.58853 2.44058 7.03097L0 7.51173V10.4883L2.44055 10.9691C2.57354 11.4115 2.75108 11.8388 2.97081 12.2456L1.60942 14.2877L3.71232 16.3906L5.75441 15.0292C6.16117 15.249 6.58853 15.4265 7.03093 15.5595L7.51173 18H10.4883L10.9691 15.5595C11.4115 15.4265 11.8388 15.249 12.2456 15.0292L14.2877 16.3906L16.3906 14.2877L15.0292 12.2456C15.2489 11.8388 15.4265 11.4115 15.5595 10.9691L18 10.4883ZM15.0334 14.1533L14.1533 15.0334L12.2802 13.7847C11.3298 14.3608 11.0148 14.4705 10.0623 14.7058L9.62111 16.9453H8.37889L7.93772 14.7058C6.85375 14.438 6.55372 14.2902 5.71978 13.7847L3.84673 15.0334L2.96659 14.1533L4.2153 12.2802C3.63526 11.3233 3.52775 11.0071 3.29421 10.0623L1.05469 9.62111V8.37893L3.29418 7.93775C3.52452 7.00576 3.63006 6.68521 4.21527 5.71982L2.96655 3.84676L3.84669 2.96663L5.71975 4.2153C6.67797 3.63452 6.99462 3.52723 7.93768 3.29421L8.37889 1.05469H9.62111L10.0623 3.29421C11.1484 3.56256 11.4481 3.71088 12.2802 4.2153L14.1533 2.96663L15.0334 3.84676L13.7847 5.71982C14.3596 6.6683 14.4699 6.98326 14.7058 7.93775L16.9453 8.37889V9.62107L14.7058 10.0622C14.4374 11.1484 14.2898 11.4469 13.7847 12.2802L15.0334 14.1533Z" fill="white"/>
<path d="M9 5.30859C6.96456 5.30859 5.30859 6.96456 5.30859 9C5.30859 11.0354 6.96456 12.6914 9 12.6914C11.0354 12.6914 12.6914 11.0354 12.6914 9C12.6914 6.96456 11.0354 5.30859 9 5.30859ZM9 11.6367C7.54611 11.6367 6.36328 10.4539 6.36328 9C6.36328 7.54611 7.54611 6.36328 9 6.36328C10.4539 6.36328 11.6367 7.54611 11.6367 9C11.6367 10.4539 10.4539 11.6367 9 11.6367Z" fill="white"/>
</svg>
