<svg width="36" height="36" viewBox="0 0 36 36" fill="none" xmlns="http://www.w3.org/2000/svg">
<path d="M24.7091 36H11.2909C10.8 36 10.4727 35.8364 10.1455 35.5091L0.490909 25.8545C0.163636 25.6909 0 25.2 0 24.7091V11.2909C0 10.8 0.163636 10.4727 0.490909 10.1455L10.1455 0.490909C10.3091 0.163636 10.8 0 11.2909 0H24.8727C25.3636 0 25.6909 0.163636 26.0182 0.490909L35.6727 10.1455C35.8364 10.3091 36 10.8 36 11.2909V24.8727C36 25.3636 35.8364 25.6909 35.5091 26.0182L25.8545 35.6727C25.6909 35.8364 25.2 36 24.7091 36ZM11.9455 32.7273H24.2182L32.8909 24.0545V11.9455L24.0545 3.27273H11.9455L3.27273 11.9455V24.2182L11.9455 32.7273Z" fill="white"/>
<path d="M18 19.6364C17.0182 19.6364 16.3636 18.9818 16.3636 18V11.4545C16.3636 10.4727 17.0182 9.81818 18 9.81818C18.9818 9.81818 19.6364 10.4727 19.6364 11.4545V18C19.6364 18.9818 18.9818 19.6364 18 19.6364Z" fill="white"/>
<path d="M18 26.1818C17.5091 26.1818 17.1818 26.0182 16.8545 25.6909C16.5273 25.3636 16.3636 25.0364 16.3636 24.5455C16.3636 24.3818 16.3636 24.0545 16.5273 23.8909C16.6909 23.7273 16.6909 23.5636 16.8545 23.4C17.3455 22.9091 18 22.7455 18.6545 23.0727C18.8182 23.0727 18.8182 23.0727 18.9818 23.2364C18.9818 23.2364 19.1455 23.4 19.3091 23.4C19.4727 23.5636 19.6364 23.7273 19.6364 23.8909C19.6364 24.0545 19.6364 24.3818 19.6364 24.5455C19.6364 24.7091 19.6364 25.0364 19.4727 25.2C19.3091 25.3636 19.3091 25.5273 19.1455 25.6909C18.8182 26.0182 18.4909 26.1818 18 26.1818Z" fill="white"/>
</svg>
