<svg width="36" height="36" viewBox="0 0 36 36" fill="none" xmlns="http://www.w3.org/2000/svg">
<path d="M35.9999 17.9977C35.9991 17.6326 35.8095 17.2939 35.4987 17.1022L31.84 14.8468L35.5025 12.5673C35.8114 12.375 35.9994 12.0372 35.9999 11.6734C36.0005 11.3097 35.8135 10.9712 35.5052 10.7781L18.56 0.160945C18.2175 -0.0536482 17.7824 -0.0536482 17.44 0.160945L0.494718 10.7781C0.186469 10.9712 -0.000491216 11.3097 9.69382e-07 11.6734C0.000563467 12.0372 0.188508 12.3751 0.497389 12.5673L4.13478 14.8312L0.495772 17.1057C0.187102 17.2986 -0.000280279 17.637 7.12816e-05 18.0011C0.000422843 18.3651 0.188438 18.7031 0.49746 18.8955L4.13485 21.1594L0.495772 23.4338C0.187594 23.6265 0.000282218 23.9642 7.12816e-05 24.3276C-0.000139655 24.6911 0.18682 25.029 0.494788 25.2219L17.44 35.8391C17.6113 35.9464 17.8056 36 18 36C18.1943 36 18.3887 35.9464 18.56 35.8391L35.5052 25.2219C35.8141 25.0283 36.0012 24.6889 35.9999 24.3243C35.9986 23.9597 35.809 23.6217 35.4987 23.4304L31.84 21.175L35.5025 18.8954C35.8125 18.7025 36.0007 18.3629 35.9999 17.9977ZM3.04593 11.669L18 2.29942L32.9541 11.669C32.8103 11.7585 18.4285 20.7098 18 20.9765L3.04593 11.669ZM32.9472 24.3355L18 33.7007L3.04297 24.3293L6.1289 22.4006L17.4427 29.4423C17.6133 29.5485 17.8066 29.6016 18 29.6016C18.1934 29.6016 18.3867 29.5485 18.5573 29.4423L29.8399 22.42L32.9472 24.3355ZM18 27.3046L3.04768 17.9982L6.1289 16.0725L17.4427 23.1142C17.6133 23.2204 17.8066 23.2735 18 23.2735C18.1934 23.2735 18.3867 23.2204 18.5573 23.1142L29.8399 16.0919L32.9424 18.0044C32.8567 18.0577 18.3959 27.0582 18 27.3046Z" fill="white"/>
</svg>
