<svg width="36" height="36" viewBox="0 0 36 36" fill="none" xmlns="http://www.w3.org/2000/svg">
<path d="M34.7143 25.7142H32.1429V20.5714C32.1429 19.8613 31.5672 19.2856 30.8571 19.2856H19.2857V10.2857H25.7142C26.4243 10.2857 27 9.71005 27 8.99994V1.28566C27 0.575633 26.4243 0 25.7142 0H10.2857C9.57558 0 8.99994 0.575633 8.99994 1.28574V9.00002C8.99994 9.71012 9.57558 10.2858 10.2857 10.2858H16.7142V19.2857H5.1428C4.4327 19.2857 3.85706 19.8613 3.85706 20.5714V25.7143H1.28574C0.575633 25.7142 0 26.2899 0 27V34.7143C0 35.4244 0.575633 36 1.28574 36H9.00002C9.71012 36 10.2858 35.4244 10.2858 34.7143V27C10.2858 26.2899 9.71012 25.7142 9.00002 25.7142H6.42854V21.8571H16.7142V25.7142H14.1428C13.4327 25.7142 12.8571 26.2899 12.8571 27V34.7143C12.8571 35.4244 13.4327 36 14.1428 36H21.8571C22.5672 36 23.1428 35.4244 23.1428 34.7143V27C23.1428 26.2899 22.5672 25.7142 21.8571 25.7142H19.2857V21.8571H29.5714V25.7142H27C26.2899 25.7142 25.7142 26.2899 25.7142 27V34.7143C25.7142 35.4244 26.2899 36 27 36H34.7143C35.4244 36 36 35.4244 36 34.7143V27C36 26.2899 35.4244 25.7142 34.7143 25.7142ZM7.71428 28.2857V33.4286H2.5714V28.2857H7.71428ZM20.5714 28.2857V33.4286H15.4286V28.2857H20.5714ZM11.5714 7.71428V2.5714H24.4286V7.71428H11.5714ZM33.4285 33.4285H28.2856V28.2856H33.4285V33.4285Z"/>
</svg>
