<svg width="36" height="36" viewBox="0 0 36 36" fill="none" xmlns="http://www.w3.org/2000/svg">
<path d="M33.8906 21.7163V14.2837C35.0947 14.0246 36 12.9522 36 11.6719C36 9.55673 33.6533 8.29385 31.8928 9.42005L26.58 4.10716C27.7065 2.34605 26.4426 0 24.3281 0C21.7227 0 20.6538 3.37718 22.812 4.87027L20.4316 10.6361L16.3798 6.58427L20.5883 4.83525C20.8752 4.716 21.0111 4.3868 20.8919 4.09992C20.7726 3.81305 20.4435 3.67713 20.1566 3.79638L15.5191 5.72365L13.9155 4.11996C15.0538 2.36257 13.7961 0 11.6719 0C9.55673 0 8.29385 2.34668 9.42005 4.10716L4.10723 9.42005C2.34605 8.2935 0 9.55737 0 11.6719C0 13.337 1.51277 14.6003 3.15464 14.2992L4.69259 18L3.15457 21.7008C1.51552 21.4002 0 22.6605 0 24.3281C0 26.4433 2.34668 27.7061 4.10716 26.58L9.42005 31.8928C8.29343 33.6539 9.55737 36 11.6719 36C12.9522 36 14.0245 35.0947 14.2836 33.8906H21.7163C21.9754 35.0947 23.0478 36 24.3281 36C25.8013 36 26.9999 34.8014 26.9999 33.3281C26.9999 31.8549 25.8013 30.6562 24.3281 30.6562C23.0477 30.6562 21.9754 31.5616 21.7163 32.7656H14.4913L31.1335 25.8494C32.637 28.012 36 26.9127 36 24.3281C36 23.0478 35.0947 21.9755 33.8906 21.7163ZM30.6997 12.1485L29.1428 12.7913L25.9213 5.03958L31.0928 10.2109C30.7287 10.7661 30.5734 11.4511 30.6997 12.1485ZM31.1298 13.188C31.5101 13.7377 32.0908 14.1384 32.7656 14.2837V21.5089L29.5745 13.8302L31.1298 13.188ZM31.72 21.9245L25.3639 15.5684L28.5346 14.2594L31.72 21.9245ZM34.875 11.6719C34.875 12.5248 34.1811 13.2188 33.3281 13.2188C32.4752 13.2188 31.7812 12.5248 31.7812 11.6719C31.7812 10.8189 32.4752 10.125 33.3281 10.125C34.1811 10.125 34.875 10.8189 34.875 11.6719ZM24.3281 1.125C25.1811 1.125 25.875 1.81891 25.875 2.67188C25.875 3.52484 25.1811 4.21875 24.3281 4.21875C23.4752 4.21875 22.7812 3.52484 22.7812 2.67188C22.7812 1.81891 23.4752 1.125 24.3281 1.125ZM23.8515 5.3003C24.1708 5.35809 24.4866 5.35866 24.8109 5.29917L28.1029 13.2205L24.5025 14.7069L21.2931 11.4974L23.8515 5.3003ZM23.3763 15.1719L19.0364 16.9636L20.8281 12.6237L23.3763 15.1719ZM11.1892 5.29924C11.8702 5.42405 12.5542 5.28195 13.12 4.91555L14.3951 6.19073L10.0721 7.98736L11.1892 5.29924ZM8.59936 8.59936L5.03965 10.0787L10.0787 5.03958L8.59936 8.59936ZM11.6719 1.125C12.5248 1.125 13.2188 1.81891 13.2188 2.67188C13.2188 3.52484 12.5248 4.21875 11.6719 4.21875C10.8189 4.21875 10.125 3.52484 10.125 2.67188C10.125 1.81891 10.8189 1.125 11.6719 1.125ZM1.125 11.6719C1.125 10.8189 1.81891 10.125 2.67188 10.125C3.52484 10.125 4.21875 10.8189 4.21875 11.6719C4.21875 12.5248 3.52484 13.2188 2.67188 13.2188C1.81891 13.2188 1.125 12.5248 1.125 11.6719ZM4.19316 13.8665C5.04858 13.2718 5.4912 12.2359 5.29924 11.1891L7.98736 10.072L5.30177 16.5342L4.19316 13.8665ZM5.30177 19.4658L6.42558 22.1699L4.87027 22.812C4.6871 22.5473 4.45746 22.3172 4.19316 22.1335L5.30177 19.4658ZM5.3003 23.8515L6.85723 23.2087L10.0787 30.9604L4.90725 25.7891C5.27055 25.235 5.42679 24.5503 5.3003 23.8515ZM1.125 24.3281C1.125 23.4752 1.81891 22.7812 2.67188 22.7812C3.52484 22.7812 4.21875 23.4752 4.21875 24.3281C4.21875 25.1811 3.52484 25.875 2.67188 25.875C1.81891 25.875 1.125 25.1811 1.125 24.3281ZM11.6719 34.875C10.8189 34.875 10.125 34.1811 10.125 33.3281C10.125 32.4752 10.8189 31.7812 11.6719 31.7812C12.5248 31.7812 13.2188 32.4752 13.2188 33.3281C13.2188 34.1811 12.5248 34.875 11.6719 34.875ZM24.3281 31.7812C25.1811 31.7812 25.875 32.4752 25.875 33.3281C25.875 34.1811 25.1811 34.875 24.3281 34.875C23.4752 34.875 22.7812 34.1811 22.7812 33.3281C22.7812 32.4752 23.4752 31.7812 24.3281 31.7812ZM13.8666 31.8069C13.273 30.953 12.2381 30.5086 11.1892 30.7008L7.89715 22.7794L10.0893 21.8744C10.3764 21.7559 10.5131 21.427 10.3946 21.1399C10.276 20.8526 9.94711 20.7161 9.66002 20.8346L7.4655 21.7406L5.91089 18L9.45998 9.45998L15.2558 7.05136L19.9666 11.7622L17.5692 17.5693L13.7448 19.1481C13.4577 19.2667 13.321 19.5955 13.4395 19.8827C13.5586 20.1713 13.8883 20.306 14.1741 20.188L16.9635 19.0364L12.9506 28.7565C12.7974 29.1274 13.0718 29.5338 13.4703 29.5338C13.6913 29.5338 13.9009 29.4027 13.9904 29.1858L18.4306 18.4307L24.2376 16.0333L31.0843 22.88C30.7183 23.4451 30.5756 24.1291 30.7006 24.8108L13.8666 31.8069ZM33.3281 25.875C32.4752 25.875 31.7812 25.1811 31.7812 24.3281C31.7812 23.4752 32.4752 22.7812 33.3281 22.7812C34.1811 22.7812 34.875 23.4752 34.875 24.3281C34.875 25.1811 34.1811 25.875 33.3281 25.875Z" fill="white"/>
</svg>
