<svg width="36" height="36" viewBox="0 0 36 36" fill="none" xmlns="http://www.w3.org/2000/svg">
<g clip-path="url(#clip0)">
<path d="M30 18C28.35 18 27 16.65 27 15C27 13.35 28.35 12 30 12C31.65 12 33 13.35 33 15C33 16.65 31.65 18 30 18ZM30 13.5C29.1 13.5 28.5 14.1 28.5 15C28.5 15.9 29.1 16.5 30 16.5C30.9 16.5 31.5 15.9 31.5 15C31.5 14.1 30.9 13.5 30 13.5Z" fill="white"/>
<path d="M35.25 25.5C34.8 25.5 34.5 25.2 34.5 24.75V23.25C34.5 22.05 33.45 21 32.25 21H27.75C27.3 21 27 20.7 27 20.25C27 19.8 27.3 19.5 27.75 19.5H32.25C34.35 19.5 36 21.15 36 23.25V24.75C36 25.2 35.7 25.5 35.25 25.5Z" fill="white"/>
<path d="M6 18C4.35 18 3 16.65 3 15C3 13.35 4.35 12 6 12C7.65 12 9 13.35 9 15C9 16.65 7.65 18 6 18ZM6 13.5C5.1 13.5 4.5 14.1 4.5 15C4.5 15.9 5.1 16.5 6 16.5C6.9 16.5 7.5 15.9 7.5 15C7.5 14.1 6.9 13.5 6 13.5Z" fill="white"/>
<path d="M0.75 25.5C0.3 25.5 0 25.2 0 24.75V23.25C0 21.15 1.65 19.5 3.75 19.5H8.25C8.7 19.5 9 19.8 9 20.25C9 20.7 8.7 21 8.25 21H3.75C2.55 21 1.5 22.05 1.5 23.25V24.75C1.5 25.2 1.2 25.5 0.75 25.5Z" fill="white"/>
<path d="M18 18.75C15.45 18.75 13.5 16.8 13.5 14.25C13.5 11.7 15.45 9.75 18 9.75C20.55 9.75 22.5 11.7 22.5 14.25C22.5 16.8 20.55 18.75 18 18.75ZM18 11.25C16.35 11.25 15 12.6 15 14.25C15 15.9 16.35 17.25 18 17.25C19.65 17.25 21 15.9 21 14.25C21 12.6 19.65 11.25 18 11.25Z" fill="white"/>
<path d="M25.5 28.5C25.05 28.5 24.75 28.2 24.75 27.75V24.75C24.75 23.55 23.7 22.5 22.5 22.5H13.5C12.3 22.5 11.25 23.55 11.25 24.75V27.75C11.25 28.2 10.95 28.5 10.5 28.5C10.05 28.5 9.75 28.2 9.75 27.75V24.75C9.75 22.65 11.4 21 13.5 21H22.5C24.6 21 26.25 22.65 26.25 24.75V27.75C26.25 28.2 25.95 28.5 25.5 28.5Z" fill="white"/>
</g>
<defs>
<clipPath id="clip0">
<rect width="36" height="36" fill="white"/>
</clipPath>
</defs>
</svg>
