<svg width="19" height="18" viewBox="0 0 19 18" fill="none" xmlns="http://www.w3.org/2000/svg">
<g clip-path="url(#clip0)">
<path d="M15.8073 11.636C14.8457 10.6558 13.701 9.93013 12.4521 9.49085C13.7897 8.55179 14.6685 6.9802 14.6685 5.20312C14.6685 2.33413 12.3786 0 9.564 0C6.7494 0 4.45952 2.33413 4.45952 5.20312C4.45952 6.9802 5.33828 8.55179 6.6759 9.49085C5.42702 9.93013 4.28238 10.6558 3.3207 11.636C1.65305 13.3359 0.734619 15.596 0.734619 18H2.11421C2.11421 13.8128 5.45617 10.4062 9.564 10.4062C13.6718 10.4062 17.0138 13.8128 17.0138 18H18.3934C18.3934 15.596 17.475 13.3359 15.8073 11.636ZM9.564 9C7.5101 9 5.83911 7.29675 5.83911 5.20312C5.83911 3.1095 7.5101 1.40625 9.564 1.40625C11.6179 1.40625 13.2889 3.1095 13.2889 5.20312C13.2889 7.29675 11.6179 9 9.564 9Z" fill="#969696"/>
</g>
<defs>
<clipPath id="clip0">
<rect width="17.6588" height="18" fill="white" transform="translate(0.734619)"/>
</clipPath>
</defs>
</svg>
