<svg width="24" height="21" viewBox="0 0 24 21" fill="none" xmlns="http://www.w3.org/2000/svg">
<path d="M3.49999 21C2.99999 21 2.49999 20.9 1.99999 20.6C0.599987 19.8 0.0999871 17.9 0.899987 16.5L9.39999 2.30002C9.69999 1.90002 9.99999 1.50002 10.4 1.30002C11.1 0.900024 11.9 0.800024 12.7 1.00002C13.5 1.20002 14.1 1.70002 14.6 2.40002L23 16.5C23.3 17 23.4 17.5 23.4 18C23.4 18.8 23.1 19.6 22.5 20.1C22 20.7 21.3 21 20.5 21H3.49999ZM11.1 3.40002L2.69999 17.5C2.39999 18 2.59999 18.6 3.09999 18.9C3.19999 19 3.39999 19 3.49999 19H20.4C20.7 19 20.9 18.9 21.1 18.7C21.3 18.5 21.4 18.3 21.4 18C21.4 17.8 21.4 17.7 21.3 17.5L12.9 3.40002C12.6 2.90002 12 2.80002 11.5 3.00002C11.3 3.10002 11.2 3.20002 11.1 3.40002Z" fill="#EAB52F"/>
<path d="M12 13C11.4 13 11 12.6 11 12V8.00002C11 7.40002 11.4 7.00002 12 7.00002C12.6 7.00002 13 7.40002 13 8.00002V12C13 12.6 12.6 13 12 13Z" fill="#EAB52F"/>
<path d="M12 17C11.7 17 11.5 16.9 11.3 16.7C11.1 16.5 11 16.3 11 16C11 15.9 11 15.7 11.1 15.6C11.2 15.5 11.2 15.4 11.3 15.3C11.4 15.2 11.5 15.1 11.6 15.1C11.8 15 12 15 12.2 15C12.3 15 12.3 15 12.4 15.1C12.5 15.1 12.5 15.1 12.6 15.2C12.6 15.2 12.7 15.3 12.8 15.3C12.9 15.4 13 15.5 13 15.6C13 15.7 13.1 15.9 13.1 16C13.1 16.3 13 16.5 12.8 16.7C12.5 16.9 12.3 17 12 17Z" fill="#EAB52F"/>
</svg>
